<?xml version="1.0" standalone="no"?>
<!DOCTYPE svg PUBLIC "-//W3C//DTD SVG 20010904//EN"
 "http://www.w3.org/TR/2001/REC-SVG-20010904/DTD/svg10.dtd">
<svg version="1.0" xmlns="http://www.w3.org/2000/svg"
 width="175.000000pt" height="203.000000pt" viewBox="0 0 175.000000 203.000000"
 preserveAspectRatio="xMidYMid meet">

<g transform="translate(0.000000,203.000000) scale(0.100000,-0.100000)"
fill="#000000" stroke="none">
<path d="M862 2010 c-6 -14 -202 -467 -436 -1008 -234 -540 -426 -987 -426
-993 0 -6 64 -8 171 -7 l172 3 348 824 349 823 -76 177 c-96 222 -90 212 -102
181z"/>
<path d="M962 922 c-106 -257 -192 -473 -192 -480 0 -9 53 -12 229 -12 l228 0
89 -215 89 -215 174 0 c134 0 172 3 168 13 -17 43 -589 1372 -590 1374 -2 1
-89 -208 -195 -465z"/>
</g>
</svg>
